<svg xmlns="http://www.w3.org/2000/svg" xmlns:xlink="http://www.w3.org/1999/xlink" version="1.1" x="0px" y="0px" viewBox="0 0 148.0515 100.21912499999999" enable-background="new 0 0 148.0515 80.1753" xml:space="preserve"><path d="M148.0339,10.3223c0.0061,0,0.0115,0.0024,0.0176,0.0024V0H0v10.3472c1.7175,0.1304,3.0833,1.9902,3.0833,4.2876  c0,2.2969-1.3657,4.1567-3.0833,4.2876v1.3301c1.7175,0.1309,3.0833,1.9907,3.0833,4.2876c0,2.2974-1.3657,4.1572-3.0833,4.2876  v5.1084h75.6875v-5h6.625v5h65.739v-5.0859c-0.0061,0-0.0115,0.0024-0.0176,0.0024c-1.7676,0-3.2007-1.9307-3.2007-4.3125  c0-2.3813,1.4331-4.3125,3.2007-4.3125c0.0061,0,0.0115,0.0024,0.0176,0.0024v-1.2852c-0.0061,0-0.0115,0.0024-0.0176,0.0024  c-1.7676,0-3.2007-1.9307-3.2007-4.3125S146.2664,10.3223,148.0339,10.3223z M51.9648,4.3945h9.2314v15.0615h-9.2314V4.3945z   M38.0898,4.3945h9.2314v15.0615h-9.2314V4.3945z M24.2148,4.3945h9.2314v15.0615h-9.2314V4.3945z M10.3398,4.3945h9.2314v15.0615  h-9.2314V4.3945z M74.0259,32.186H3v-3.25h71.0259V32.186z M125.6667,4.3945h9.2312v15.0615h-9.2312V4.3945z M111.7917,4.3945  h9.2312v15.0615h-9.2312V4.3945z M97.9167,4.3945h9.2312v15.0615h-9.2312V4.3945z M84.0417,4.3945h9.2312v15.0615h-9.2312V4.3945z   M144.75,32.186H84.0417v-3.25H144.75V32.186z"/><path d="M148.0339,56.5616c0.0061,0,0.0115,0.0024,0.0176,0.0024V46.2393H0v10.3472c1.7175,0.1304,3.0833,1.9902,3.0833,4.2876  c0,2.2969-1.3657,4.1567-3.0833,4.2876v1.3301c1.7175,0.1309,3.0833,1.9907,3.0833,4.2876c0,2.2974-1.3657,4.1572-3.0833,4.2876  v5.1084h75.6875v-5h6.625v5h65.739v-5.0859c-0.0061,0-0.0115,0.0024-0.0176,0.0024c-1.7676,0-3.2007-1.9307-3.2007-4.3125  c0-2.3813,1.4331-4.3125,3.2007-4.3125c0.0061,0,0.0115,0.0024,0.0176,0.0024v-1.2852c-0.0061,0-0.0115,0.0024-0.0176,0.0024  c-1.7676,0-3.2007-1.9307-3.2007-4.3125S146.2664,56.5616,148.0339,56.5616z M51.9648,50.6338h9.2314v15.0615h-9.2314V50.6338z   M38.0898,50.6338h9.2314v15.0615h-9.2314V50.6338z M24.2148,50.6338h9.2314v15.0615h-9.2314V50.6338z M10.3398,50.6338h9.2314  v15.0615h-9.2314V50.6338z M74.0259,78.4253H3v-3.25h71.0259V78.4253z M125.6667,50.6338h9.2312v15.0615h-9.2312V50.6338z   M111.7917,50.6338h9.2312v15.0615h-9.2312V50.6338z M97.9167,50.6338h9.2312v15.0615h-9.2312V50.6338z M84.0417,50.6338h9.2312  v15.0615h-9.2312V50.6338z M144.75,78.4253H84.0417v-3.25H144.75V78.4253z"/><text x="0" y="95.1753" fill="#000000" font-size="5px" font-weight="bold" font-family="'Helvetica Neue', Helvetica, Arial-Unicode, Arial, Sans-serif">Created by Hoach Le Dinh</text><text x="0" y="100.1753" fill="#000000" font-size="5px" font-weight="bold" font-family="'Helvetica Neue', Helvetica, Arial-Unicode, Arial, Sans-serif">from the Noun Project</text></svg>