<svg xmlns="http://www.w3.org/2000/svg" xmlns:xlink="http://www.w3.org/1999/xlink" version="1.1" x="0px" y="0px" viewBox="0 0 128.5 122.29124999999999" enable-background="new 0 0 128.5 97.833" xml:space="preserve"><g><path fill="#000000" d="M88.2872,49.7623c0.437,0.3303,0.9413,0.5746,1.4901,0.709c0.3132,0.0765,0.6387,0.1215,0.9755,0.1215   c1.3354,0,2.5178-0.642,3.2657-1.6306c0.3306-0.4372,0.5746-0.9415,0.7089-1.4903c0.0767-0.3131,0.1218-0.6389,0.1218-0.9756   c0-1.3354-0.6418-2.5178-1.6308-3.2659c-0.437-0.3304-0.9413-0.5744-1.4901-0.7088C91.415,42.445,91.0896,42.4,90.7528,42.4   c-1.3353,0-2.5178,0.642-3.2657,1.6307c-0.3306,0.437-0.5748,0.9415-0.7089,1.4903c-0.0767,0.3132-0.1218,0.6387-0.1218,0.9754   C86.6564,47.8317,87.2982,49.0145,88.2872,49.7623z"/><path fill="#000000" d="M16.333,79H124.5V15.5H16.333V79z M68.7259,36.0973c2.277-1.3508,9.2231,2.2019,14.3909,5.2424   c-2.7205-4.043-5.2396-9.5394-7.1506-12.9609c-3.9734-7.1135,6.0881-8.3954,10.1254-8.4595   c4.0374-0.064,12.8173,0.769,15.0602,4.5504c1.3507,2.277-2.2018,9.2229-5.2424,14.3907c4.043-2.7203,9.5394-5.2397,12.9609-7.1507   c7.1136-3.9731,8.3954,6.0883,8.4595,10.1254c0.064,4.0377-0.769,12.8174-4.5502,15.0603   c-2.2769,1.3508-9.2231-2.2019-14.3908-5.2424c2.7205,4.043,5.2396,9.5396,7.1506,12.9612   c3.9733,7.1132-6.0881,8.3951-10.1254,8.4592c-4.0374,0.0641-12.8173-0.769-15.0602-4.55   c-1.3507-2.2771,2.2018-9.223,5.2424-14.391c-4.043,2.7203-9.5394,5.2397-12.9611,7.1509   c-7.1135,3.9731-8.3953-6.0884-8.4594-10.1257C64.1118,47.1201,64.9449,38.3405,68.7259,36.0973z M23.4999,21.0829h24.8333v5.2645   h6.7502c1.1045,0,2,0.8955,2,2s-0.8955,2-2,2h-6.7502v8.333h6.7502c1.1045,0,2,0.8955,2,2s-0.8955,2-2,2h-6.7502v8.3335h6.7502   c1.1045,0,2,0.8955,2,2s-0.8955,2-2,2h-6.7502v7.8289h6.7502c1.1045,0,2,0.8955,2,2s-0.8955,2-2,2h-6.7502v7.7401H23.4999V21.0829z   "/><path fill="#000000" d="M126.5,11.5H16.333V2c0-1.1045-0.8955-2-2-2H2C0.8955,0,0,0.8955,0,2s0.8955,2,2,2h10.333v9.5v5.2842H6.125   c-1.0625,0-1.9238,0.8613-1.9238,1.9238v19.5c0,1.0625,0.8613,1.9238,1.9238,1.9238h6.208v8.4023H6.125   c-1.0625,0-1.9238,0.8613-1.9238,1.9238v19.5c0,1.0625,0.8613,1.9238,1.9238,1.9238h6.208V81v14.833c0,1.1045,0.8955,2,2,2   s2-0.8955,2-2V83h32.3262v11c0,1.0625,0.8613,1.9238,1.9238,1.9238h8.3955h7.6045h7.6045h7.6035h7.6045H97h7.6035h9.5625   c1.0625,0,1.9238-0.8613,1.9238-1.9238V83H126.5c1.1045,0,2-0.8955,2-2V13.5C128.5,12.3955,127.6045,11.5,126.5,11.5z    M12.333,54.3818H8.0488v15.6523h4.2842v1.9238H6.1248v-19.5h6.2083V54.3818z M12.333,22.6318H8.0488v15.6523h4.2842v1.9238H6.1248   v-19.5h6.2083V22.6318z M114.1663,93.9995h-7.6389h-1.9236h-1.9241h-3.7559h-1.9241h-1.9236h-3.7568h-1.9238h-1.9238h-3.7568   h-1.9236h-1.9241h-3.7559h-1.9241h-1.9236h-3.7568H66.583h-1.9238h-3.7568h-1.9236h-1.9241H50.583V83h1.9238v9.0762h4.5479V83   h1.9241h1.9236v9.0762h3.7568V83h1.9238h1.9238v9.0762h3.7568V83h1.9236h1.9241v9.0762h3.7559V83h1.9241h1.9236v9.0762h3.7568V83   h1.9238h1.9238v9.0762h3.7568V83h1.9236h1.9241v9.0762h3.7559V83h1.9241h1.9236v9.0762h5.7148V83h1.9241V93.9995z    M126.4998,80.9995h-10.4099h-1.9236h-7.6389h-1.9236h-1.9241h-3.7559h-1.9241h-1.9236h-3.7568h-1.9238h-1.9238h-3.7568h-1.9236   h-1.9241h-3.7559h-1.9241h-1.9236h-3.7568H66.583h-1.9238h-3.7568h-1.9236h-1.9241H50.583h-1.9238H16.333h-2v-7.1177V71.958v-19.5   v-1.9238v-8.4023V40.208v-19.5v-1.9238v-5.2847h2h110.1667V80.9995z"/></g><text x="0" y="112.833" fill="#000000" font-size="5px" font-weight="bold" font-family="'Helvetica Neue', Helvetica, Arial-Unicode, Arial, Sans-serif">Created by Hoach Le Dinh</text><text x="0" y="117.833" fill="#000000" font-size="5px" font-weight="bold" font-family="'Helvetica Neue', Helvetica, Arial-Unicode, Arial, Sans-serif">from the Noun Project</text></svg>